<svg id="Layer_1" data-name="Layer 1" xmlns="http://www.w3.org/2000/svg" viewBox="45 49 162 162">
  <defs>
    <style>
      .cls-1{fill:#fff;}
    </style>
  </defs>
  <title>ZHD_final logo_2.0</title>
  <path class="cls-1" d="M66.33,178.12S80,156.93,83.8,154.78s6.7,3.18,9.29,6.16,5.17,7.17,10.15,2.79,9.36-13.54,13.54-17.91,4.13-7.57,9.43-2.79,10.67,13.53,15.65,19.7,5.37,11.35,10.55,13.34,11.14,1.2,18.11,1.2,11.54,5.55,11.54,5.55-23.18,27.28-57.86,24.4C124.2,207.22,89.53,208,66.33,178.12Z"/>
  <path class="cls-1" d="M60.55,132.73a34.75,34.75,0,0,1,9.84,2.65,39.88,39.88,0,0,0,9.38,2.67,47.61,47.61,0,0,0,7.92.27c-4.74-9.81-1-20.68,8.87-25.82,1.8-.93,7.48-5.19,9.24-6.21-.37-.59-4.19,1.72-6.17,2.19a46.75,46.75,0,0,1-5.22,1.28c-2.19.5-4.52,1.12-6.69.85-5.27-.64-6.52-3.29-4.5-8.15.9-2.18,1.53-5.63,12.48-10.22,11.12-4.67,11.77-3.15,20.47-8.94,4.65-3.08,4.34-1.21,4.82,1.73a57.12,57.12,0,0,1,.82,10.52A31,31,0,0,1,111.63,118c-2.07,2-3.26,4.79-.29,6.57,1.19.72,4.43-.31,5.66-1.58a41.08,41.08,0,0,0,11.29-21.23C130.48,90,127,80,119,71.29c-.79-.86-.95-2.31-1.41-3.48.94-.33,1.91-1,2.8-.93,26.29,2.53,47.24,13.53,59.67,37.88a11,11,0,0,1,.56,2.64c-7.56-3.69-15.64-7.5-22.77-11,6.35,10.34,10.68,21.46,7.74,34-10.26-5-20.14-9.58-31.51-5.12,9.65,2.31,15.08,10.42,23.18,15.22,11.82,7,37.16-9.27,43.69-15.62,3-15.66-15.39-44.4-29-54.78-7.28-5.54-23.48-11.93-38.6-14.89s-41.61,6-59.08,19.38-24.15,48.87-24.15,48.87-2.44,8.81,1.4,9.5A35.92,35.92,0,0,1,60.55,132.73Z"/>
  <path class="cls-1" d="M101.17,96.21s3.54-6.45,9-2.91,1.37,2.52.55,2a8.93,8.93,0,0,0-4.38-.63,20.85,20.85,0,0,0-3.82,1.38C101.14,96.8,100.45,97.26,101.17,96.21Z"/>
  <path class="cls-1" d="M126.21,208.56a77.49,77.49,0,1,1,77.48-77.49A77.58,77.58,0,0,1,126.21,208.56Zm0-152.29a74.81,74.81,0,1,0,74.8,74.8A74.89,74.89,0,0,0,126.21,56.27Z"/>
</svg>
